<svg xmlns="http://www.w3.org/2000/svg" width="118.427" height="22.774" viewBox="0 0 118.427 22.774">
  <g id="Groupe_9" data-name="Groupe 9" transform="translate(-326.5 -1732)">
    <path id="Polygone_1" data-name="Polygone 1" d="M11.843,0l3.375,7.893,8.468.806L17.3,14.383l1.858,8.391-7.319-4.38-7.319,4.38,1.858-8.391L0,8.7l8.468-.806Z" transform="translate(326.5 1732)" fill="#efa61d"/>
    <path id="Polygone_2" data-name="Polygone 2" d="M11.843,0l3.375,7.893,8.468.806L17.3,14.383l1.858,8.391-7.319-4.38-7.319,4.38,1.858-8.391L0,8.7l8.468-.806Z" transform="translate(350.185 1732)" fill="#efa61d"/>
    <path id="Polygone_3" data-name="Polygone 3" d="M11.843,0l3.375,7.893,8.468.806L17.3,14.383l1.858,8.391-7.319-4.38-7.319,4.38,1.858-8.391L0,8.7l8.468-.806Z" transform="translate(373.871 1732)" fill="#efa61d"/>
    <path id="Polygone_4" data-name="Polygone 4" d="M11.843,0l3.375,7.893,8.468.806L17.3,14.383l1.858,8.391-7.319-4.38-7.319,4.38,1.858-8.391L0,8.7l8.468-.806Z" transform="translate(397.556 1732)" fill="#efa61d"/>
    <path id="Polygone_5" data-name="Polygone 5" d="M11.843,0l3.375,7.893,8.468.806L17.3,14.383l1.858,8.391-7.319-4.38-7.319,4.38,1.858-8.391L0,8.7l8.468-.806Z" transform="translate(421.242 1732)" fill="#efa61d"/>
  </g>
</svg>
