<?xml version="1.0" encoding="utf-8"?>
<!-- Generator: Adobe Illustrator 26.3.1, SVG Export Plug-In . SVG Version: 6.00 Build 0)  -->
<svg version="1.1" id="Calque_1" xmlns="http://www.w3.org/2000/svg" xmlns:xlink="http://www.w3.org/1999/xlink" x="0px" y="0px"
	 viewBox="0 0 223 50" style="enable-background:new 0 0 223 50;" xml:space="preserve">
<style type="text/css">
	.st0{fill:#E7305A;}
</style>
<g>
	<g>
		<path d="M71.1,19.1h5.8l1,10.8l5.3-10.8h5.8l-9.2,16.3H74L71.1,19.1z"/>
		<path d="M88.4,35.3l3.1-16.3h5.8l-3.1,16.3H88.4z"/>
		<path d="M109.1,23.8c0-0.5-0.2-0.9-0.6-1.1c-0.4-0.2-0.8-0.3-1.4-0.3c-1.2,0-1.9,0.3-2,0.9c0,0,0,0.1,0,0.1l0,0.1
			c0,0.4,0.2,0.7,0.7,0.9c0.5,0.2,1.3,0.4,2.4,0.7c0.9,0.2,1.7,0.4,2.2,0.6c0.6,0.2,1.1,0.4,1.7,0.7c0.6,0.3,1,0.7,1.3,1.2
			c0.3,0.5,0.5,1.1,0.5,1.7c0,0.3,0,0.6-0.1,0.9c-0.3,1.8-1.4,3.2-3,4.2c-1.7,0.9-3.8,1.4-6.3,1.4c-1.1,0-2-0.1-2.9-0.4
			c-0.8-0.2-1.6-0.6-2.2-1c-0.6-0.4-1-0.9-1.3-1.5c-0.3-0.6-0.5-1.2-0.5-1.9c0-0.2,0-0.4,0-0.6h5.5c0,0.6,0.3,1,0.7,1.3
			c0.4,0.3,0.9,0.4,1.6,0.4c0.7,0,1.3-0.1,1.8-0.3c0.5-0.2,0.7-0.5,0.8-0.9c0,0,0-0.1,0-0.1v-0.1c0-0.4-0.2-0.7-0.7-0.9
			c-0.5-0.2-1.3-0.4-2.3-0.7c-0.9-0.2-1.7-0.4-2.3-0.6c-0.6-0.2-1.2-0.4-1.7-0.7s-1-0.7-1.4-1.2c-0.3-0.5-0.5-1.1-0.5-1.8
			c0-0.3,0-0.6,0.1-0.9c0.3-1.7,1.3-3,2.8-3.8c1.6-0.9,3.5-1.3,5.8-1.3c1.2,0,2.2,0.1,3,0.4c0.8,0.2,1.5,0.6,2,1.1
			c0.5,0.5,0.9,1,1.2,1.6c0.2,0.6,0.4,1.3,0.4,2.1H109.1z"/>
		<path d="M115.6,35.3l3.1-16.3h5.8l-3.1,16.3H115.6z"/>
		<path d="M127.1,19.1h16.2l-0.8,4.3h-5.2l-2.3,12h-5.8l2.3-12h-5.2L127.1,19.1z"/>
		<path d="M139.4,35.3l9.4-16.3h5.9l3.2,16.3h-5.8l-0.3-2.1h-5.8l-1.1,2.1H139.4z M150.7,24l-2.9,5.8h3.6L150.7,24z"/>
	</g>
	<g>
		<g>
			<path class="st0" d="M166,31.6c0.8,0.4,2.5,1,4.2,1c2.2,0,3.3-1,3.3-2.3c0-1.7-1.8-2.4-3.7-2.4h-1.7v-2.8h1.7
				c1.4,0,3.2-0.5,3.2-1.9c0-1-0.9-1.8-2.7-1.8c-1.5,0-3.1,0.6-3.8,1l-0.9-2.8c1.1-0.6,3.3-1.3,5.6-1.3c3.9,0,6,1.9,6,4.2
				c0,1.8-1.1,3.2-3.3,3.9v0.1c2.2,0.4,3.9,1.9,3.9,4.1c0,3-2.8,5.2-7.4,5.2c-2.4,0-4.3-0.6-5.4-1.2L166,31.6z"/>
			<path class="st0" d="M192.4,21.4c-0.5,0-1,0-1.7,0.1c-3.8,0.3-5.5,2.1-5.9,4h0.1c0.9-0.9,2.2-1.3,3.9-1.3c3.1,0,5.6,2,5.6,5.5
				c0,3.3-2.8,6.1-6.7,6.1c-4.8,0-7.2-3.3-7.2-7.4c0-3.2,1.3-5.8,3.2-7.5c1.8-1.5,4.2-2.4,7-2.5c0.8-0.1,1.3-0.1,1.7,0V21.4z
				 M190.1,29.9c0-1.6-0.9-2.9-2.7-2.9c-1.1,0-2.1,0.6-2.5,1.5c-0.1,0.2-0.2,0.5-0.2,1c0.1,1.8,1,3.4,2.9,3.4
				C189.1,32.8,190.1,31.6,190.1,29.9z"/>
			<path class="st0" d="M209.8,27c0,5.2-2.3,8.8-6.9,8.8c-4.7,0-6.8-3.9-6.8-8.7c0-4.9,2.2-8.7,6.9-8.7
				C207.8,18.3,209.8,22.4,209.8,27z M200.3,27.1c0,3.9,1,5.7,2.6,5.7c1.7,0,2.5-1.9,2.5-5.7c0-3.7-0.9-5.7-2.6-5.7
				C201.4,21.3,200.3,23.2,200.3,27.1z"/>
		</g>
		<g>
			<path class="st0" d="M212.5,22.1c-2.5,0-4.4-1.8-4.4-4.1c0-2.3,2-4.1,4.4-4.1c2.5,0,4.4,1.8,4.4,4.1
				C217,20.3,215,22.1,212.5,22.1z M212.5,16.4c-1,0-1.7,0.7-1.7,1.6c0,0.9,0.8,1.6,1.7,1.6s1.7-0.7,1.7-1.6
				C214.2,17.1,213.5,16.4,212.5,16.4z"/>
		</g>
	</g>
	<g>
		<g>
			<g>
				<path class="st0" d="M10,32.9c-1.4-2.9-0.4-6.6,2.4-10.1l-1.1-2.2C4.6,26.5,1.5,33,3.9,38C7.8,45.8,24,46.7,40.5,40l-3.8-4.9
					C24.6,39.7,12.9,38.8,10,32.9z"/>
				<path class="st0" d="M45.2,6.3l1.3,2.5c4.5,0.5,7.8,2.2,9.2,5c2.5,5.1-2.3,12.2-11.2,17.5l5,0.8l-3.3,5.3
					C60,30.3,68,19.8,64.5,12.7C62.1,7.7,54.6,5.5,45.2,6.3z"/>
			</g>
			<polygon class="st0" points="29.3,31 46.7,33.3 37.3,47.1 			"/>
		</g>
		<g>
			<ellipse transform="matrix(0.9177 -0.3973 0.3973 0.9177 -6.7833 15.0449)" cx="32.9" cy="23.9" rx="21.6" ry="6.6"/>
		</g>
		<g>
			<polygon class="st0" points="33.6,17.2 47.1,23.8 47.9,9.6 			"/>
			<g>
				<path class="st0" d="M23.3,9.3c-3,1.1-5,3.7-5.8,7l-2.2,0.8c0.2-6.4,3.1-11.7,8.1-13.5c7.9-3,18.3,3.6,23.5,14.6L41,19.5
					C37,11.6,29.3,7,23.3,9.3z"/>
			</g>
		</g>
	</g>
</g>
<g>
</g>
<g>
</g>
<g>
</g>
<g>
</g>
<g>
</g>
<g>
</g>
</svg>
